<?xml version="1.0" encoding="UTF-8"?>
<svg width="125px" height="33px" viewBox="0 0 125 33" version="1.1" xmlns="http://www.w3.org/2000/svg" xmlns:xlink="http://www.w3.org/1999/xlink">
    <!-- Generator: Sketch 43.2 (39069) - http://www.bohemiancoding.com/sketch -->
    <title>Slice</title>
    <desc>Created with Sketch.</desc>
    <defs>
        <polygon id="path-1" points="0 29.8600006 124.83633 29.8600006 124.83633 0.00324062022 0 0.00324062022"></polygon>
    </defs>
    <g id="Page-1" stroke="none" stroke-width="1" fill="none" fill-rule="evenodd">
        <g id="reindex_rgb" transform="translate(0.000000, 2.000000)">
            <g id="Group-6">
                <mask id="mask-2" fill="white">
                    <use xlink:href="#path-1"></use>
                </mask>
                <g id="Clip-2"></g>
                <path d="M101.510114,17.1729724 L110.194281,16.5463754 C110.122756,13.6652325 109.13645,11.7905337 105.994669,11.7905337 C102.559612,11.7905337 101.510114,13.76384 101.510114,17.0801518 L101.510114,17.1729724 Z M53.6563378,17.1729724 L62.3405056,16.5463754 C62.2689805,13.6652325 61.2824431,11.7905337 58.1404303,11.7905337 C54.7053729,11.7905337 53.6563378,13.76384 53.6563378,17.0801518 L53.6563378,17.1729724 Z M39.1260912,15.9623693 L44.0057708,15.9623693 C46.7420117,15.9623693 48.7444835,14.7526921 48.7444835,11.7940058 C48.7444835,8.16127055 45.9283845,7.12797565 42.7632244,7.12797565 C41.5528528,7.12797565 40.3121582,7.28144216 39.1260912,7.52472015 L39.1260912,15.9623693 Z M95.7563925,20.0594392 L95.7563925,12.6833246 C94.4994948,12.0750139 93.1472303,11.7905337 91.7516803,11.7905337 C88.158064,11.7905337 87.2953646,14.0538755 87.2953646,17.4049083 C87.2953646,20.2828105 87.8536771,23.0185884 91.2716056,23.0185884 C93.6168887,23.0185884 94.6589796,21.9876082 95.7563925,20.0594392 Z M118.804609,18.1271036 L114.670735,23.9090645 L113.039083,23.9090645 L117.972464,17.1063083 L113.388607,10.900752 L115.161689,10.900752 L118.829608,16.0792631 L122.453779,10.900752 L124.112977,10.900752 L119.689762,17.0537639 L124.83633,23.9090645 L123.061627,23.9090645 L118.804609,18.1271036 Z M101.545066,18.3629745 C101.712652,21.5693367 103.022095,23.0185884 106.248826,23.0185884 C107.764279,23.0185884 109.058907,22.7623479 110.417884,22.0866786 L110.548666,22.0220977 L111.101655,23.1266862 L110.97666,23.1935819 C109.507501,23.977349 107.867516,24.2081275 106.220587,24.2081275 C101.76566,24.2081275 100.089333,21.8227995 100.089333,17.4296759 C100.089333,13.2488128 101.59599,10.6014576 105.994669,10.6014576 C110.378997,10.6014576 111.646542,13.3990387 111.646542,17.4049083 L111.646542,17.6405476 L101.545066,18.3629745 Z M67.5236462,8.42422374 C66.9683428,8.42422374 66.5301646,8.18534373 66.5301646,7.58027364 C66.5301646,6.97520355 66.9678798,6.73562913 67.5236462,6.73562913 C68.079644,6.73562913 68.5162019,6.97520355 68.5162019,7.58027364 C68.5162019,8.18534373 68.079644,8.42422374 67.5236462,8.42422374 Z M53.6908273,18.3629745 C53.8581822,21.5693367 55.1680872,23.0185884 58.3945876,23.0185884 C59.9111978,23.0185884 61.2053626,22.7623479 62.5654972,22.0866786 L62.6953535,22.0220977 L63.2476478,23.1271492 L63.122421,23.1935819 C61.6532627,23.977349 60.0132774,24.2081275 58.3668108,24.2081275 C53.9121154,24.2081275 52.2348629,21.8227995 52.2348629,17.4296759 C52.2348629,13.2488128 53.7424457,10.6014576 58.1404303,10.6014576 C62.524758,10.6014576 63.7923035,13.3990387 63.7923035,17.4049083 L63.7923035,17.6405476 L53.6908273,18.3629745 Z M44.7457896,17.2264427 L39.1260912,17.2264427 L39.1260912,23.9090645 L37.6761451,23.9090645 L37.6761451,6.41318742 L37.7937333,6.39004013 C39.3959886,6.07500555 41.0716207,5.86320787 42.7069765,5.86320787 C46.6952541,5.86320787 50.1941981,7.24209178 50.1941981,11.7940058 C50.1941981,14.5587178 48.7472612,16.2230078 46.1897174,16.8750669 L50.7957961,23.9090645 L49.0972481,23.9090645 L44.7457896,17.2264427 Z M68.2344994,10.900752 L68.2344994,23.9090645 L66.8132559,23.9090645 L66.8132559,10.8995946 L68.2344994,10.900752 Z M96.9889855,23.9090645 L95.7563925,23.9090645 L95.7563925,22.1364453 C94.5781956,23.6655551 93.1384343,24.2081275 91.101936,24.2081275 C86.954868,24.2081275 85.8738897,21.0300049 85.8738897,17.4049083 C85.8738897,13.2036756 87.415499,10.6014576 91.7516803,10.6014576 C93.2027838,10.6014576 94.4344509,10.8433467 95.7563925,11.3768917 L95.7563925,5.88103128 L97.1778674,5.69307531 L97.1778674,23.9741084 L96.9889855,23.9090645 Z M73.5877725,12.6856393 C74.7745339,11.1465762 76.2578121,10.6014576 78.2984769,10.6014576 C82.1798141,10.6014576 83.187647,13.2015924 83.187647,16.5567917 L83.187647,23.9090645 L81.7668665,23.9090645 L81.7668665,16.8558546 C81.7668665,14.0851243 81.4316938,11.7905337 78.1288073,11.7905337 C75.7881536,11.7905337 74.688426,12.8171159 73.5877725,14.7501459 L73.5877725,23.9090645 L72.1662976,23.9090645 L72.1662976,10.900752 L73.5877725,10.900752 L73.5877725,12.6856393 L73.5877725,12.6856393 Z" id="Fill-1" fill="#061647" mask="url(#mask-2)"></path>
                <path d="M1.49855538,22.0176997 C2.32120997,22.0176997 2.98900921,22.680638 2.99711076,23.5012093 L14.412427,28.5602804 L25.8277432,23.5012093 C25.8358447,22.680638 26.5034125,22.0176997 27.3260671,22.0176997 C28.1535826,22.0176997 28.8248539,22.6887395 28.8248539,23.5162551 C28.8248539,24.3442335 28.1535826,25.0148104 27.3260671,25.0148104 C26.9441368,25.0148104 26.5950757,24.8719917 26.3309652,24.6365838 L14.6626491,29.8074563 C14.5087197,29.8748149 14.3281708,29.8803702 14.1622048,29.8074563 L2.49388873,24.6365838 C2.22954671,24.8719917 1.88071709,25.0148104 1.49855538,25.0148104 C0.671039859,25.0148104 0,24.3442335 0,23.5162551 C0,22.6887395 0.671039859,22.0176997 1.49855538,22.0176997" id="Fill-3" fill="#5BBAE9" mask="url(#mask-2)"></path>
                <path d="M27.3260671,16.2945329 C28.1535826,16.2945329 28.8248539,16.9651098 28.8248539,17.7933197 C28.8248539,18.6208353 28.1535826,19.2918751 27.3260671,19.2918751 C26.9441368,19.2918751 26.5950757,19.1483619 26.3309652,18.9131855 L14.6626491,24.084521 C14.4964516,24.1578979 14.3161342,24.1518796 14.1622048,24.0842895 L1.2483332,18.3611227 C0.934918934,18.2231649 0.792331644,17.8565118 0.930520949,17.5430976 C0.995101881,17.3954179 1.11153274,17.2856997 1.2483332,17.2252853 L12.9136401,12.0551072 C12.9222046,11.2343044 13.5895409,10.5715976 14.412427,10.5715976 C15.2399425,10.5715976 15.9109823,11.2421745 15.9109823,12.070153 C15.9109823,12.8976685 15.2399425,13.5687083 14.412427,13.5687083 C14.0300338,13.5687083 13.6814356,13.4258896 13.4166307,13.1900187 L3.03044285,17.7933197 L14.412427,22.8373451 L25.8277432,17.778274 C25.8358447,16.9574712 26.5034125,16.2945329 27.3260671,16.2945329" id="Fill-4" fill="#5BBAE9" mask="url(#mask-2)"></path>
                <path d="M27.3260671,4.84866227 C28.1535826,4.84866227 28.8248539,5.51947066 28.8248539,6.34744912 C28.8248539,7.17519612 28.1535826,7.84577303 27.3260671,7.84577303 C26.5034125,7.84577303 25.8358447,7.18283472 25.8277432,6.36226339 L14.412427,1.3029608 L2.99711076,6.36226339 C2.98900921,7.18283472 2.32120997,7.84577303 1.49855538,7.84577303 C0.671039859,7.84577303 0,7.17519612 0,6.34744912 C0,5.51947066 0.671039859,4.84866227 1.49855538,4.84866227 C1.88071709,4.84866227 2.22954671,4.99194398 2.49388873,5.22712042 L14.1622048,0.0557849624 C14.3281708,-0.0171289926 14.5087197,-0.0115736436 14.6626491,0.0560164353 L26.3309652,5.22712042 C26.5950757,4.99148103 26.9441368,4.84866227 27.3260671,4.84866227" id="Fill-5" fill="#74CBC9" mask="url(#mask-2)"></path>
            </g>
            <path d="M2.49388873,10.9502872 L14.1622048,5.77918322 C14.3281708,5.70603779 14.5087197,5.71159314 14.6626491,5.77964616 L27.5762892,11.5021185 C27.8897035,11.6400764 28.0320593,12.0069609 27.894333,12.3203751 C27.8295206,12.4680548 27.7133212,12.5775415 27.5762892,12.6381874 L15.9107509,17.808134 C15.9021864,18.6289368 15.2350816,19.2918751 14.412427,19.2918751 C13.5844485,19.2918751 12.9136401,18.6212982 12.9136401,17.7933197 C12.9136401,16.9655727 13.5844485,16.2945329 14.412427,16.2945329 C14.7941257,16.2945329 15.1429553,16.4375831 15.4075288,16.6732225 L25.7939481,12.070153 L14.412427,7.02659053 L2.99711076,12.0851987 C2.98900921,12.90577 2.32120997,13.5687083 1.49855538,13.5687083 C0.671039859,13.5687083 0,12.8981314 0,12.070153 C0,11.2426374 0.671039859,10.5715976 1.49855538,10.5715976 C1.88071709,10.5715976 2.22954671,10.7144163 2.49388873,10.9502872" id="Fill-7" fill="#74CBC9"></path>
        </g>
    </g>
</svg>